<?xml version="1.0" encoding="utf-8"?>
<svg version="1.1" xmlns:xlink="http://www.w3.org/1999/xlink" width="39px" height="15px" xmlns="http://www.w3.org/2000/svg">
  <g transform="matrix(1 0 0 1 -463 -234 )">
    <path d="M 26 12  L 4.33333333333333 12  L 4.33333333333333 3  L 26 3  L 26 12  Z M 36.8333333333333 1.875  L 36.8333333333333 3.75  C 37.4314236111111 3.75  37.9420572916667 3.896484375  38.365234375 4.189453125  C 38.7884114583333 4.482421875  39 4.8359375  39 5.25  L 39 9.75  C 39 10.1640625  38.7884114583333 10.517578125  38.365234375 10.810546875  C 37.9420572916667 11.103515625  37.4314236111111 11.25  36.8333333333333 11.25  L 36.8333333333333 13.125  C 36.8333333333333 13.640625  36.5681423611111 14.08203125  36.0377604166667 14.44921875  C 35.5073784722222 14.81640625  34.8697916666667 15  34.125 15  L 2.70833333333333 15  C 1.96354166666667 15  1.32595486111111 14.81640625  0.795572916666667 14.44921875  C 0.265190972222222 14.08203125  0 13.640625  0 13.125  L 0 1.875  C 0 1.359375  0.265190972222222 0.917968749999999  0.795572916666667 0.55078125  C 1.32595486111111 0.183593749999998  1.96354166666667 0  2.70833333333333 0  L 34.125 0  C 34.8697916666667 0  35.5073784722222 0.183593749999998  36.0377604166667 0.55078125  C 36.5681423611111 0.917968749999999  36.8333333333333 1.359375  36.8333333333333 1.875  Z M 34.6666666666667 9.75  L 36.8333333333333 9.75  L 36.8333333333333 5.25  L 34.6666666666667 5.25  L 34.6666666666667 1.875  C 34.6666666666667 1.765625  34.6158854166667 1.67578125  34.5143229166667 1.60546875  C 34.4127604166667 1.53515625  34.2829861111111 1.5  34.125 1.5  L 2.70833333333333 1.5  C 2.55034722222222 1.5  2.42057291666667 1.53515625  2.31901041666667 1.60546875  C 2.21744791666667 1.67578125  2.16666666666667 1.765625  2.16666666666667 1.875  L 2.16666666666667 13.125  C 2.16666666666667 13.234375  2.21744791666667 13.32421875  2.31901041666667 13.39453125  C 2.42057291666667 13.46484375  2.55034722222222 13.5  2.70833333333333 13.5  L 34.125 13.5  C 34.2829861111111 13.5  34.4127604166667 13.46484375  34.5143229166667 13.39453125  C 34.6158854166667 13.32421875  34.6666666666667 13.234375  34.6666666666667 13.125  L 34.6666666666667 9.75  Z " fill-rule="nonzero" fill="#000000" stroke="none" transform="matrix(1 0 0 1 463 234 )" />
  </g>
</svg>