<?xml version="1.0" encoding="utf-8"?>
<svg version="1.1" xmlns:xlink="http://www.w3.org/1999/xlink" width="24px" height="17px" xmlns="http://www.w3.org/2000/svg">
  <g transform="matrix(1 0 0 1 -236 -233 )">
    <path d="M 13.1364562118126 16.1043010752688  C 12.5417515274949 16.7014336917563  12.162932790224 17  12 17  C 11.837067209776 17  11.4582484725051 16.7014336917563  10.8635437881874 16.1043010752688  C 10.2688391038697 15.5071684587814  9.9714867617108 15.1273596176822  9.97148676171079 14.9648745519713  C 9.9714867617108 14.7048984468339  10.2260692464358 14.4855436081243  10.7352342158859 14.3068100358423  C 11.2443991853361 14.1280764635603  11.6659877800407 14.0387096774194  12 14.0387096774194  C 12.3340122199593 14.0387096774194  12.755600814664 14.1280764635603  13.2647657841141 14.3068100358423  C 13.7739307535642 14.4855436081243  14.0285132382892 14.7048984468339  14.0285132382892 14.9648745519713  C 14.0285132382892 15.1273596176822  13.7311608961303 15.5071684587814  13.1364562118126 16.1043010752688  Z M 16.4419551934827 12.7835125448029  C 15.826883910387 13.3928315412186  15.4460285132383 13.6974910394265  15.2993890020367 13.6974910394265  C 15.2830957230143 13.6974910394265  15.1201629327902 13.5959378733572  14.8105906313646 13.3928315412186  C 14.5010183299389 13.18972520908  14.0875763747454 12.9866188769415  13.5702647657841 12.7835125448029  C 13.0529531568228 12.5804062126643  12.5295315682281 12.478853046595  12 12.478853046595  C 11.4704684317719 12.478853046595  10.9470468431772 12.5804062126643  10.4297352342159 12.7835125448029  C 9.91242362525458 12.9866188769415  9.5010183299389 13.18972520908  9.19551934826884 13.3928315412186  C 8.89002036659878 13.5959378733572  8.72505091649695 13.6974910394265  8.70061099796334 13.6974910394265  C 8.55397148676171 13.6974910394265  8.17311608961304 13.3928315412186  7.55804480651731 12.7835125448029  C 6.94297352342159 12.1741935483871  6.63543788187373 11.7964157706093  6.63543788187373 11.6501792114695  C 6.63543788187373 11.5445639187575  6.67617107942974 11.4511350059737  6.75763747454175 11.3698924731183  C 7.39307535641548 10.7443249701314  8.19144602851324 10.252807646356  9.15274949083503 9.89534050179211  C 10.1140529531568 9.53787335722819  11.0631364562118 9.35913978494624  12 9.35913978494624  C 12.9368635437882 9.35913978494624  13.8859470468432 9.53787335722819  14.847250509165 9.89534050179211  C 15.8085539714868 10.252807646356  16.6069246435845 10.7443249701314  17.2423625254582 11.3698924731183  C 17.3238289205703 11.4511350059737  17.3645621181263 11.5445639187575  17.3645621181263 11.6501792114695  C 17.3645621181263 11.7964157706093  17.0570264765784 12.1741935483871  16.4419551934827 12.7835125448029  Z M 19.7596741344196 9.46881720430108  C 19.1486761710794 10.0781362007168  18.7739307535642 10.3827956989247  18.6354378818737 10.3827956989247  C 18.5458248472505 10.3827956989247  18.4521384928717 10.3502986857826  18.3543788187373 10.2853046594982  C 17.2464358452139 9.43225806451613  16.2199592668024 8.80465949820789  15.2749490835031 8.40250896057348  C 14.3299389002037 8.00035842293907  13.2382892057026 7.79928315412186  12 7.79928315412186  C 11.3075356415479 7.79928315412186  10.6130346232179 7.88864994026284  9.91649694501018 8.0673835125448  C 9.21995926680244 8.24611708482676  8.61303462321792 8.46140979689367  8.09572301425662 8.71326164874552  C 7.57841140529532 8.96511350059737  7.11608961303462 9.21696535244922  6.70875763747454 9.46881720430108  C 6.30142566191446 9.72066905615293  5.979633401222 9.93596176821983  5.74338085539715 10.1146953405018  C 5.5071283095723 10.2934289127838  5.38085539714868 10.3827956989247  5.36456211812627 10.3827956989247  C 5.22606924643584 10.3827956989247  4.85132382892057 10.0781362007168  4.24032586558045 9.46881720430108  C 3.62932790224033 8.85949820788531  3.32382892057027 8.48172043010753  3.32382892057027 8.33548387096774  C 3.32382892057027 8.23799283154122  3.36456211812627 8.14862604540024  3.44602851323829 8.0673835125448  C 4.5213849287169 6.99498207885305  5.82484725050917 6.16224611708483  7.35641547861507 5.56917562724014  C 8.88798370672098 4.97610513739546  10.4358452138493 4.67956989247312  12 4.67956989247312  C 13.5641547861507 4.67956989247312  15.112016293279 4.97610513739546  16.6435845213849 5.56917562724014  C 18.1751527494908 6.16224611708483  19.4786150712831 6.99498207885305  20.5539714867617 8.0673835125448  C 20.6354378818737 8.14862604540024  20.6761710794297 8.23799283154122  20.6761710794297 8.33548387096774  C 20.6761710794297 8.48172043010753  20.3706720977597 8.85949820788531  19.7596741344196 9.46881720430108  Z M 23.0773930753564 6.1663082437276  C 22.4623217922607 6.77562724014337  22.0855397148676 7.08028673835125  21.9470468431772 7.08028673835125  C 21.857433808554 7.08028673835125  21.7678207739308 7.04372759856631  21.6782077393075 6.97060931899641  C 20.2199592668024 5.69510155316607  18.7067209775967 4.73440860215054  17.1384928716904 4.08853046594982  C 15.5702647657841 3.4426523297491  13.857433808554 3.11971326164875  12 3.11971326164875  C 10.142566191446 3.11971326164875  8.42973523421589 3.4426523297491  6.86150712830957 4.08853046594982  C 5.29327902240326 4.73440860215054  3.78004073319756 5.69510155316607  2.32179226069246 6.97060931899641  C 2.23217922606925 7.04372759856631  2.14256619144603 7.08028673835125  2.05295315682281 7.08028673835125  C 1.91446028513238 7.08028673835125  1.53767820773931 6.77562724014337  0.922606924643585 6.1663082437276  C 0.307535641547862 5.55698924731183  0 5.17921146953405  0 5.03297491039427  C 0 4.9273596176822  0.0407331975560082 4.83393070489845  0.122199592668024 4.75268817204301  C 1.64562118126273 3.2415770609319  3.45824847250509 2.07168458781362  5.56008146639511 1.24301075268817  C 7.66191446028513 0.414336917562723  9.80855397148676 0  12 0  C 14.1914460285132 0  16.3380855397149 0.414336917562723  18.4399185336049 1.24301075268817  C 20.5417515274949 2.07168458781362  22.3543788187373 3.2415770609319  23.877800407332 4.75268817204301  C 23.959266802444 4.83393070489845  24 4.9273596176822  24 5.03297491039427  C 24 5.17921146953405  23.6924643584521 5.55698924731183  23.0773930753564 6.1663082437276  Z " fill-rule="nonzero" fill="#000000" stroke="none" transform="matrix(1 0 0 1 236 233 )" />
  </g>
</svg>