<?xml version="1.0" encoding="utf-8"?>
<svg version="1.1" xmlns:xlink="http://www.w3.org/1999/xlink" width="28px" height="21px" xmlns="http://www.w3.org/2000/svg">
  <g transform="matrix(1 0 0 1 -155 -561 )">
    <path d="M 26.775 11.7006392045455  C 27.5916666666667 12.7397017045455  28 13.9303977272727  28 15.2727272727273  C 28 16.8536931818182  27.453125 18.2034801136364  26.359375 19.3220880681818  C 25.265625 20.4406960227273  23.9458333333333 21  22.4 21  L 6.53333333333333 21  C 4.73472222222222 21  3.19618055555556 20.3462357954545  1.91770833333333 19.0387073863636  C 0.639236111111111 17.7311789772727  0 16.1576704545455  0 14.3181818181818  C 0 13.0056818181818  0.345138888888889 11.8050426136364  1.03541666666667 10.7162642045455  C 1.72569444444444 9.62748579545455  2.63472222222222 8.81463068181818  3.7625 8.27769886363636  C 3.74305555555556 7.99928977272727  3.73333333333333 7.78551136363636  3.73333333333333 7.63636363636364  C 3.73333333333333 5.52840909090909  4.4625 3.72869318181818  5.92083333333333 2.23721590909091  C 7.37916666666667 0.745738636363637  9.13888888888889 0  11.2 0  C 12.7361111111111 0  14.1288194444444 0.437499999999998  15.378125 1.3125  C 16.6274305555556 2.1875  17.5388888888889 3.33096590909091  18.1125 4.74289772727273  C 18.7930555555556 4.12642045454545  19.6 3.81818181818182  20.5333333333333 3.81818181818182  C 21.5638888888889 3.81818181818182  22.44375 4.19105113636364  23.1729166666667 4.93678977272727  C 23.9020833333333 5.68252840909091  24.2666666666667 6.58238636363636  24.2666666666667 7.63636363636364  C 24.2666666666667 8.38210227272727  24.0673611111111 9.06818181818182  23.66875 9.69460227272727  C 24.9229166666667 9.99289772727273  25.9583333333333 10.6615767045455  26.775 11.7006392045455  Z " fill-rule="nonzero" fill="#000000" stroke="none" transform="matrix(1 0 0 1 155 561 )" />
  </g>
</svg>