<?xml version="1.0" encoding="utf-8"?>
<svg version="1.1" xmlns:xlink="http://www.w3.org/1999/xlink" width="38px" height="15px" xmlns="http://www.w3.org/2000/svg">
  <g transform="matrix(1 0 0 1 -391 -190 )">
    <path d="M 4.22222222222222 3  L 31.6666666666667 3  L 31.6666666666667 12  L 4.22222222222222 12  L 4.22222222222222 3  Z M 33.7777777777778 13.125  L 33.7777777777778 9.75  L 35.8888888888889 9.75  L 35.8888888888889 5.25  L 33.7777777777778 5.25  L 33.7777777777778 1.875  C 33.7777777777778 1.765625  33.7282986111111 1.67578125  33.6293402777778 1.60546875  C 33.5303819444444 1.53515625  33.4039351851852 1.5  33.25 1.5  L 2.63888888888889 1.5  C 2.4849537037037 1.5  2.35850694444444 1.53515625  2.25954861111111 1.60546875  C 2.16059027777778 1.67578125  2.11111111111111 1.765625  2.11111111111111 1.875  L 2.11111111111111 13.125  C 2.11111111111111 13.234375  2.16059027777778 13.32421875  2.25954861111111 13.39453125  C 2.35850694444444 13.46484375  2.4849537037037 13.5  2.63888888888889 13.5  L 33.25 13.5  C 33.4039351851852 13.5  33.5303819444444 13.46484375  33.6293402777778 13.39453125  C 33.7282986111111 13.32421875  33.7777777777778 13.234375  33.7777777777778 13.125  Z M 37.3815104166667 4.189453125  C 37.7938368055556 4.482421875  38 4.8359375  38 5.25  L 38 9.75  C 38 10.1640625  37.7938368055556 10.517578125  37.3815104166667 10.810546875  C 36.9691840277778 11.103515625  36.4716435185185 11.25  35.8888888888889 11.25  L 35.8888888888889 13.125  C 35.8888888888889 13.640625  35.6304976851852 14.08203125  35.1137152777778 14.44921875  C 34.5969328703704 14.81640625  33.9756944444444 15  33.25 15  L 2.63888888888889 15  C 1.91319444444444 15  1.29195601851852 14.81640625  0.775173611111111 14.44921875  C 0.258391203703704 14.08203125  0 13.640625  0 13.125  L 0 1.875  C 0 1.359375  0.258391203703704 0.917968749999999  0.775173611111111 0.55078125  C 1.29195601851852 0.183593749999998  1.91319444444444 0  2.63888888888889 0  L 33.25 0  C 33.9756944444444 0  34.5969328703704 0.183593749999998  35.1137152777778 0.55078125  C 35.6304976851852 0.917968749999999  35.8888888888889 1.359375  35.8888888888889 1.875  L 35.8888888888889 3.75  C 36.4716435185185 3.75  36.9691840277778 3.896484375  37.3815104166667 4.189453125  Z " fill-rule="nonzero" fill="#000000" stroke="none" transform="matrix(1 0 0 1 391 190 )" />
  </g>
</svg>