<?xml version="1.0" encoding="utf-8"?>
<svg version="1.1" xmlns:xlink="http://www.w3.org/1999/xlink" width="15px" height="16px" xmlns="http://www.w3.org/2000/svg">
  <g transform="matrix(1 0 0 1 -1894 -348 )">
    <path d="M 14.7422680412371 7.6312625250501  C 14.914089347079 7.73814295257181  15 7.86105544422178  15 8  C 15 8.13894455577822  14.914089347079 8.26185704742819  14.7422680412371 8.3687374749499  L 2.7319587628866 15.8396793587174  C 2.56013745704467 15.9465597862391  2.36254295532646 16  2.13917525773196 16  C 1.91580756013746 16  1.71821305841924 15.9465597862391  1.54639175257732 15.8396793587174  L 0.257731958762887 15.0380761523046  C 0.0859106529209623 14.9311957247829  0 14.8082832331329  0 14.6693386773547  C 0 14.5303941215765  0.0859106529209623 14.4074816299265  0.257731958762887 14.3006012024048  L 10.3865979381443 8  L 0.257731958762887 1.69939879759519  C 0.0859106529209623 1.59251837007348  0 1.46960587842351  0 1.33066132264529  C 0 1.19171676686707  0.0859106529209623 1.0688042752171  0.257731958762887 0.96192384769539  L 1.54639175257732 0.160320641282565  C 1.71821305841924 0.0534402137608545  1.91580756013746 0  2.13917525773196 0  C 2.36254295532646 0  2.56013745704467 0.0534402137608545  2.7319587628866 0.160320641282565  L 14.7422680412371 7.6312625250501  Z " fill-rule="nonzero" fill="#000000" stroke="none" transform="matrix(1 0 0 1 1894 348 )" />
  </g>
</svg>