<?xml version="1.0" encoding="utf-8"?>
<svg version="1.1" xmlns:xlink="http://www.w3.org/1999/xlink" width="36px" height="35px" xmlns="http://www.w3.org/2000/svg">
  <g transform="matrix(1 0 0 1 -1877 -376 )">
    <path d="M 1895 376  C 1905.08 376  1913 383.7  1913 393.5  C 1913 403.3  1905.08 411  1895 411  C 1884.92 411  1877 403.3  1877 393.5  C 1877 383.7  1884.92 376  1895 376  Z " fill-rule="nonzero" fill="#ffffff" stroke="none" />
    <path d="M 1895 376.5  C 1904.8 376.5  1912.5 383.98  1912.5 393.5  C 1912.5 403.02  1904.8 410.5  1895 410.5  C 1885.2 410.5  1877.5 403.02  1877.5 393.5  C 1877.5 383.98  1885.2 376.5  1895 376.5  Z " stroke-width="1" stroke="#797979" fill="none" />
  </g>
</svg>